<?xml version="1.0" encoding="utf-8"?>
<!-- Generator: Adobe Illustrator 21.0.2, SVG Export Plug-In . SVG Version: 6.00 Build 0)  -->
<svg version="1.1" id="Layer_1" xmlns="http://www.w3.org/2000/svg" xmlns:xlink="http://www.w3.org/1999/xlink" x="0px" y="0px"
	 viewBox="0 0 512 512" style="enable-background:new 0 0 512 512;" xml:space="preserve">
<style type="text/css">
	.st0{fill:#C0DDE8;}
</style>
<g>
	<g>
		<path class="st0" d="M478.8,131.9c0-0.6-0.1-1.3-0.3-1.9c0-0.1,0-0.1-0.1-0.2c-0.1-0.2-0.1-0.5-0.2-0.7c0-0.1-0.1-0.2-0.1-0.3
			c-0.1-0.2-0.2-0.5-0.4-0.7c0-0.1-0.1-0.1-0.1-0.2c0,0,0,0,0,0c-0.2-0.3-0.3-0.5-0.5-0.8c0-0.1-0.1-0.1-0.1-0.2
			c-0.2-0.2-0.3-0.4-0.5-0.6c-0.1-0.1-0.1-0.1-0.2-0.2c-0.2-0.2-0.4-0.4-0.6-0.6c0,0-0.1-0.1-0.1-0.1c-0.3-0.2-0.5-0.4-0.8-0.6
			c0,0,0,0,0,0L260,1.1c0,0,0,0-0.1,0c-0.3-0.2-0.6-0.3-0.9-0.4c0,0,0,0-0.1,0c-0.3-0.1-0.6-0.2-0.9-0.3c-0.1,0-0.2,0-0.2-0.1
			c-0.2-0.1-0.5-0.1-0.7-0.1c-0.1,0-0.2,0-0.2,0c-0.3,0-0.6-0.1-1-0.1c-0.3,0-0.6,0-1,0.1c-0.1,0-0.2,0-0.2,0
			c-0.2,0-0.5,0.1-0.7,0.1c-0.1,0-0.2,0-0.2,0.1c-0.3,0.1-0.6,0.2-0.9,0.3c0,0,0,0-0.1,0c-0.3,0.1-0.6,0.3-0.9,0.4c0,0,0,0-0.1,0
			L123.9,75c-3.9,2.2-5.2,7.2-3,11c2.2,3.9,7.2,5.2,11,3l115.9-66.9v55c-15.3,3.6-26.7,17.4-26.7,33.7c0,2.2,0.2,4.3,0.6,6.4
			l-65.6,37.9c-1.7-1.6-3.6-3-5.7-4.3c-7.9-4.8-17.2-6.2-26.2-3.9c-8,2-14.8,6.6-19.6,13.1l-47.3-27.9l46.2-26.7
			c3.9-2.2,5.2-7.2,3-11c-2.2-3.9-7.2-5.2-11-3L37.3,125c0,0,0,0,0,0c-0.3,0.2-0.6,0.3-0.8,0.6c0,0-0.1,0.1-0.1,0.1
			c-0.2,0.2-0.4,0.4-0.6,0.5c-0.1,0.1-0.1,0.1-0.2,0.2c-0.2,0.2-0.3,0.4-0.5,0.6c0,0.1-0.1,0.1-0.1,0.2c-0.2,0.2-0.4,0.5-0.5,0.8
			c0,0,0,0,0,0c0,0-0.1,0.1-0.1,0.2c-0.1,0.2-0.2,0.5-0.4,0.7c0,0.1-0.1,0.2-0.1,0.3c-0.1,0.2-0.2,0.5-0.2,0.7c0,0.1,0,0.1-0.1,0.2
			c-0.2,0.6-0.2,1.3-0.3,1.9c0,0,0,0.1,0,0.1V380c0,0,0,0,0,0c0,0.3,0,0.7,0.1,1c0,0,0,0.1,0,0.1c0,0.3,0.1,0.5,0.2,0.8
			c0,0.1,0,0.2,0.1,0.2c0.1,0.2,0.2,0.5,0.3,0.7c0,0.1,0,0.1,0.1,0.2c0.1,0.3,0.3,0.6,0.4,0.8c0,0,0,0,0,0c0.1,0.2,0.3,0.5,0.5,0.7
			c0.2,0.3,0.4,0.6,0.7,0.8c0,0.1,0.1,0.1,0.1,0.2c0.2,0.2,0.4,0.4,0.7,0.6c0,0,0.1,0.1,0.1,0.1c0.3,0.2,0.5,0.4,0.8,0.5
			c0,0,0.1,0,0.1,0.1l0,0c0,0,0,0,0,0L252,510.9c0,0,0,0,0.1,0c0.3,0.2,0.6,0.3,0.9,0.4c0,0,0,0,0.1,0c0.3,0.1,0.6,0.2,0.9,0.3
			c0.1,0,0.2,0,0.2,0.1c0.2,0.1,0.5,0.1,0.7,0.1c0.1,0,0.2,0,0.2,0c0.3,0,0.6,0.1,1,0.1c0.3,0,0.6,0,1-0.1c0.1,0,0.2,0,0.2,0
			c0.2,0,0.5-0.1,0.7-0.1c0.1,0,0.2,0,0.2-0.1c0.3-0.1,0.6-0.2,0.9-0.3c0,0,0,0,0.1,0c0.3-0.1,0.6-0.3,0.9-0.4c0,0,0,0,0.1,0
			L474.7,387c0,0,0,0,0,0l0,0c0,0,0.1,0,0.1-0.1c0.3-0.2,0.5-0.3,0.8-0.5c0.1,0,0.1-0.1,0.1-0.1c0.2-0.2,0.4-0.4,0.7-0.6
			c0.1-0.1,0.1-0.1,0.2-0.2c0.2-0.2,0.4-0.5,0.6-0.8c0.2-0.2,0.3-0.5,0.5-0.7c0,0,0,0,0,0c0.2-0.3,0.3-0.5,0.4-0.8
			c0-0.1,0-0.1,0.1-0.2c0.1-0.2,0.2-0.5,0.2-0.7c0-0.1,0-0.2,0.1-0.2c0.1-0.3,0.1-0.5,0.2-0.8c0,0,0-0.1,0-0.1c0-0.3,0.1-0.7,0.1-1
			c0,0,0,0,0,0L478.8,131.9C478.8,132,478.8,132,478.8,131.9z M264.1,22.1l190.6,110l-9,5.3c-10.9-11.3-28.5-14.1-42.6-5.8
			c-4.7,2.8-8.5,6.6-11.4,10.9l-101.2-33c-0.6-15.7-11.7-28.8-26.4-32.4L264.1,22.1L264.1,22.1z M384.7,294.7
			c-9.7-1.6-19.6,1.1-27.2,7.2c-0.2,0.1-0.3,0.3-0.5,0.4c-0.4,0.3-0.7,0.6-1.1,0.9c-0.4,0.4-0.9,0.8-1.3,1.2
			c-0.1,0.1-0.2,0.2-0.3,0.3l-82.1-46.5l29-17.1c3.8-2.3,5.1-7.2,2.9-11.1c-2.3-3.8-7.2-5.1-11.1-2.9l-28.9,17v-99.9
			c0.3-0.1,0.6-0.2,1-0.2c9.8-2.7,18-9.5,22.3-18.7l98.9,32.3c0,0.4,0,0.8-0.1,1.1c0,0.3,0,0.5-0.1,0.8c0,0.5,0,0.9,0,1.4
			c0,0.6,0,1.2,0,1.7c0,0.4,0,0.8,0.1,1.2c0,0.4,0.1,0.8,0.1,1.2c0,0.5,0.1,0.9,0.2,1.3c0.1,0.6,0.2,1.1,0.3,1.7
			c0.1,0.3,0.1,0.6,0.2,0.8c0.2,0.7,0.3,1.4,0.6,2.1c0,0.1,0.1,0.2,0.1,0.4l-66.3,39c-3.8,2.3-5.1,7.2-2.9,11.1c1.5,2.6,4.2,4,7,4
			c1.4,0,2.8-0.4,4.1-1.1l66.3-39c0.1,0.1,0.2,0.2,0.3,0.3c0.4,0.4,0.9,0.8,1.3,1.2c0.2,0.2,0.4,0.3,0.6,0.5c0.5,0.4,1,0.8,1.5,1.2
			c0.2,0.1,0.3,0.3,0.5,0.4c0.7,0.5,1.3,1,2,1.4c0.1,0,0.1,0.1,0.2,0.1c0.6,0.4,1.3,0.8,1.9,1.1c0.3,0.2,0.6,0.3,1,0.5
			c0.4,0.2,0.8,0.4,1.2,0.6c0.2,0.1,0.3,0.2,0.5,0.2L384.7,294.7z M395,338.5c-2.5,4.2-6.6,7.2-11.4,8.4c-4.8,1.2-9.8,0.4-14-2.1
			c-1.9-1.2-3.6-2.6-4.9-4.4c-0.2-0.3-0.4-0.5-0.6-0.8c-0.1-0.2-0.2-0.4-0.4-0.5c-0.3-0.4-0.5-0.8-0.8-1.3c-0.1-0.3-0.3-0.5-0.4-0.8
			c-0.1-0.2-0.2-0.4-0.3-0.7c-0.1-0.3-0.2-0.6-0.4-0.9c-0.1-0.2-0.2-0.4-0.2-0.7c-0.1-0.3-0.2-0.7-0.3-1c-0.1-0.2-0.1-0.4-0.2-0.6
			c-0.1-0.5-0.2-1-0.3-1.5c0-0.3-0.1-0.6-0.1-0.8c0-0.3-0.1-0.5-0.1-0.8c0-0.3,0-0.6,0-1c0-0.2,0-0.4,0-0.5c0-0.4,0-0.7,0-1.1
			c0-0.1,0-0.2,0-0.3c0.1-0.8,0.2-1.5,0.4-2.3c0-0.1,0-0.2,0-0.2c0.1-0.3,0.2-0.6,0.2-0.9c0.1-0.2,0.1-0.5,0.2-0.7
			c0.1-0.3,0.2-0.5,0.3-0.8c0.1-0.3,0.2-0.6,0.4-0.9c0.1-0.2,0.2-0.4,0.3-0.6c0.2-0.5,0.5-1,0.8-1.5c0.3-0.5,0.7-1,1-1.5
			c0.1-0.1,0.1-0.1,0.2-0.2c0.3-0.4,0.6-0.8,1-1.2c0-0.1,0.1-0.1,0.1-0.1c0.4-0.4,0.7-0.8,1.1-1.1c0,0,0,0,0.1-0.1
			c2.2-2,4.9-3.4,7.9-4.2c1.5-0.4,3-0.6,4.5-0.6c0.7,0,1.4,0,2.1,0.1c0.2,0,0.3,0,0.5,0.1c0.2,0,0.5,0.1,0.7,0.1
			c0.3,0.1,0.7,0.1,1,0.2c0.1,0,0.3,0.1,0.4,0.1c0.5,0.1,1,0.3,1.5,0.5c0.1,0,0.1,0,0.2,0.1c0.5,0.2,0.9,0.4,1.4,0.6
			c0.6,0.3,1.1,0.5,1.6,0.9C397.4,318.4,400.3,329.8,395,338.5z M345.5,337.3c0.3,1.3,0.7,2.5,1.2,3.8c0,0,0,0,0,0.1
			c0.2,0.6,0.5,1.3,0.8,1.9l-62.8,36.3c-4.8-7.2-12.1-12.3-20.6-14.3v-92.6l82,46.4C344.2,324.7,344,331.1,345.5,337.3z
			 M406.2,172.9c-0.1-0.1-0.2-0.2-0.3-0.4c-0.4-0.5-0.7-1-1-1.6c0,0,0,0,0-0.1c0,0,0,0,0,0c-0.3-0.6-0.6-1.1-0.9-1.7
			c-0.1-0.2-0.2-0.4-0.3-0.6c-0.2-0.4-0.3-0.8-0.5-1.2c-0.1-0.3-0.2-0.5-0.2-0.8c-0.1-0.3-0.2-0.7-0.3-1c-0.1-0.3-0.1-0.6-0.2-0.9
			c-0.1-0.3-0.1-0.6-0.1-0.9c0-0.3-0.1-0.7-0.1-1c0-0.3,0-0.6,0-0.8c0-0.4,0-0.7,0-1.1c0-0.3,0-0.5,0.1-0.8c0-0.4,0.1-0.7,0.1-1.1
			c0-0.3,0.1-0.5,0.1-0.8c0.1-0.4,0.1-0.7,0.2-1.1c0.1-0.3,0.2-0.6,0.3-0.9c1.3-4.2,4.1-8,8.2-10.5c2.9-1.7,6.1-2.6,9.4-2.6
			c1.5,0,3.1,0.2,4.6,0.6c4.8,1.2,8.8,4.2,11.3,8.5c5.2,8.8,2.3,20.1-6.5,25.3c-4.1,2.4-8.8,3.1-13.2,2.1c-0.4-0.1-0.7-0.2-1.1-0.3
			c-0.3-0.1-0.5-0.2-0.8-0.2c-0.3-0.1-0.7-0.2-1-0.4c-0.2-0.1-0.5-0.2-0.7-0.3c-0.3-0.2-0.7-0.3-1-0.5c-0.2-0.1-0.4-0.2-0.7-0.4
			c-0.3-0.2-0.7-0.4-1-0.6c-0.2-0.1-0.4-0.2-0.6-0.4c-0.4-0.2-0.7-0.5-1-0.8c-0.2-0.1-0.3-0.2-0.5-0.4c-0.3-0.3-0.7-0.6-1-1
			c-0.1-0.1-0.3-0.2-0.4-0.4C406.8,173.6,406.5,173.3,406.2,172.9z M255.9,92.3c10.2,0,18.5,8.3,18.5,18.5c0,1.2-0.1,2.3-0.3,3.4
			c-0.1,0.3-0.1,0.6-0.2,0.9c-0.1,0.3-0.1,0.6-0.2,0.9c-0.1,0.2-0.1,0.4-0.2,0.7c-0.1,0.4-0.3,0.8-0.4,1.1c-0.1,0.1-0.1,0.3-0.2,0.4
			c-0.2,0.5-0.4,1-0.7,1.4c0,0,0,0,0,0c-2,3.6-5.1,6.5-9,8.2c-0.1,0-0.1,0.1-0.2,0.1c-0.5,0.2-0.9,0.4-1.4,0.5
			c-0.1,0-0.2,0.1-0.4,0.1c-0.4,0.1-0.9,0.2-1.3,0.3c-0.2,0-0.3,0.1-0.5,0.1c-0.4,0.1-0.9,0.1-1.3,0.2c-0.2,0-0.3,0-0.5,0.1
			c-0.6,0.1-1.2,0.1-1.8,0.1c-0.6,0-1.1,0-1.7-0.1c-0.2,0-0.3,0-0.5-0.1c-0.4-0.1-0.9-0.1-1.3-0.2c-0.1,0-0.3,0-0.4-0.1
			c-1.1-0.2-2.2-0.6-3.3-1c0,0-0.1,0-0.1-0.1c-3.3-1.4-6.1-3.7-8.1-6.7c0,0,0,0,0,0c-0.3-0.5-0.6-0.9-0.9-1.4c0-0.1-0.1-0.1-0.1-0.2
			c-1.4-2.6-2.2-5.6-2.2-8.7C237.4,100.6,245.7,92.3,255.9,92.3z M164.1,195c0.1-0.1,0.1-0.2,0.2-0.4c0.2-0.5,0.4-1,0.6-1.4
			c0-0.1,0.1-0.2,0.1-0.3c0.2-0.5,0.4-1.1,0.6-1.6c0,0,0-0.1,0-0.1c1.2-3.7,1.7-7.5,1.7-11.3c0,0,0,0,0-0.1c0-0.6,0-1.2-0.1-1.7
			c0-0.1,0-0.2,0-0.4c0-0.5-0.1-0.9-0.1-1.4c0-0.2,0-0.4-0.1-0.5c-0.1-0.4-0.1-0.8-0.2-1.2c0-0.2-0.1-0.4-0.1-0.7
			c-0.1-0.3-0.1-0.7-0.2-1c-0.1-0.3-0.1-0.5-0.2-0.8c0-0.2-0.1-0.4-0.2-0.6c-0.2-0.7-0.4-1.5-0.7-2.2c-0.1-0.2-0.1-0.3-0.2-0.5
			c0-0.1-0.1-0.2-0.1-0.3l63.3-36.6c4.3,5.6,10.3,9.7,17,11.8c0,0,0.1,0,0.1,0c0.4,0.1,0.8,0.2,1.2,0.3c0.2,0.1,0.4,0.1,0.6,0.2
			c0.1,0,0.3,0.1,0.4,0.1v99.8L164.1,195C164.1,195,164.1,195,164.1,195z M166.7,326.8c0,0,0-0.1,0-0.1c0-0.4,0-0.8-0.1-1.1
			c0-0.3,0-0.5-0.1-0.8c0-0.3-0.1-0.6-0.1-1c0-0.3-0.1-0.7-0.1-1c0-0.3-0.1-0.5-0.1-0.8c-0.1-0.5-0.2-0.9-0.3-1.4
			c0-0.2-0.1-0.3-0.1-0.5c-0.1-0.4-0.2-0.7-0.3-1.1l82.4-46.6v92.5c-8.5,2-15.9,7.1-20.7,14.3l-63.6-36.7
			C165.8,337.5,166.9,332.2,166.7,326.8z M151.3,209.6c0.6-0.4,1.1-0.8,1.7-1.2c0.1-0.1,0.2-0.1,0.2-0.2c0.2-0.2,0.5-0.3,0.7-0.5
			l85.9,50.6l-82.1,46.4c-4-4.4-9-7.7-14.8-9.6c0,0-0.1,0-0.1,0c-0.6-0.2-1.2-0.4-1.8-0.5c0,0-0.1,0-0.1,0c-0.1,0-0.2-0.1-0.3-0.1
			c-1.2-0.3-2.5-0.6-3.7-0.7c0,0,0,0,0,0c-0.7-0.1-1.4-0.2-2-0.2c0,0,0,0,0,0v-78.4C140.8,214.7,146.4,212.8,151.3,209.6
			C151.3,209.6,151.3,209.6,151.3,209.6z M150.5,327.5c0,0.5,0,0.9,0,1.4c0,0.1,0,0.2,0,0.3c-0.1,1.7-0.5,3.4-1,5
			c0,0.1,0,0.1-0.1,0.2c-0.2,0.5-0.4,0.9-0.6,1.4c0,0.1-0.1,0.2-0.1,0.2c-0.2,0.5-0.5,0.9-0.7,1.4c0,0-0.1,0.1-0.1,0.1
			c-0.3,0.5-0.6,0.9-0.9,1.4c-0.1,0.1-0.2,0.2-0.3,0.3c-1.4,1.8-3.1,3.4-5.2,4.6c-4.2,2.5-9.2,3.2-14,2c-4.8-1.2-8.8-4.2-11.3-8.5
			c-2.5-4.2-3.2-9.2-2-14c1.2-4.8,4.2-8.8,8.5-11.3c1.8-1.1,3.7-1.8,5.6-2.2c0,0,0.1,0,0.1,0c0.9-0.2,1.9-0.3,2.8-0.3
			c0,0,0.1,0,0.1,0c0.4,0,0.8,0,1.2,0c0.1,0,0.1,0,0.2,0c0.4,0,0.8,0,1.2,0.1c0.1,0,0.1,0,0.2,0c0.5,0.1,0.9,0.1,1.3,0.2
			c0,0,0.1,0,0.1,0c0.4,0.1,0.8,0.2,1.1,0.3c0.5,0.1,1,0.3,1.5,0.5c0.2,0.1,0.4,0.2,0.6,0.2c0.3,0.1,0.6,0.2,0.9,0.4
			c0.3,0.1,0.5,0.3,0.8,0.4c0.2,0.1,0.4,0.2,0.6,0.3c0.3,0.2,0.6,0.3,0.9,0.5c0.1,0.1,0.2,0.2,0.4,0.3c0.6,0.4,1.2,0.8,1.7,1.3
			c0.1,0.1,0.2,0.2,0.3,0.2c0.2,0.2,0.4,0.4,0.7,0.6c0.2,0.2,0.4,0.4,0.5,0.5c0.2,0.2,0.4,0.4,0.5,0.6c0.2,0.2,0.4,0.5,0.6,0.8
			c0.1,0.2,0.3,0.3,0.4,0.5c0.3,0.4,0.6,0.9,0.9,1.4c0.3,0.5,0.6,1,0.8,1.5c0.1,0.2,0.1,0.3,0.2,0.5c0.2,0.4,0.3,0.7,0.4,1.1
			c0.1,0.2,0.1,0.4,0.2,0.6c0.1,0.4,0.2,0.8,0.3,1.2c0,0.1,0.1,0.3,0.1,0.4c0.1,0.5,0.2,1.1,0.3,1.6c0,0.1,0,0.1,0,0.2
			c0.1,0.5,0.1,1,0.1,1.5C150.5,327.3,150.5,327.4,150.5,327.5z M116.8,170.9c2.5-4.2,6.6-7.2,11.4-8.4c1.5-0.4,3-0.6,4.5-0.6
			c3.3,0,6.6,0.9,9.5,2.7c2.7,1.6,4.8,3.9,6.4,6.4c0,0,0,0,0,0.1c0.3,0.5,0.5,1,0.8,1.4c0.1,0.1,0.1,0.2,0.2,0.4
			c0.2,0.4,0.3,0.8,0.5,1.2c0,0.1,0.1,0.3,0.1,0.4c0.2,0.5,0.3,1,0.5,1.5c0,0,0,0,0,0c0.1,0.5,0.2,1,0.3,1.5c0,0.2,0.1,0.4,0.1,0.6
			c0,0.3,0.1,0.7,0.1,1c0,0.2,0,0.4,0,0.6c0,0.4,0,0.8,0,1.2c0,0.3,0,0.6-0.1,0.9c0,0.3,0,0.6-0.1,0.9c0,0.3-0.1,0.5-0.1,0.8
			c0,0.3-0.1,0.6-0.2,0.8c-0.1,0.2-0.1,0.5-0.2,0.7c-0.1,0.5-0.3,0.9-0.4,1.4c-0.1,0.2-0.1,0.4-0.2,0.5c-0.1,0.4-0.3,0.7-0.4,1.1
			c-0.1,0.2-0.1,0.3-0.2,0.5c-0.2,0.5-0.5,1-0.8,1.5c-0.3,0.5-0.6,1-1,1.4c-0.1,0.1-0.2,0.3-0.3,0.4c-0.3,0.3-0.5,0.6-0.8,0.9
			c-0.1,0.1-0.2,0.3-0.4,0.4c-0.3,0.3-0.6,0.7-1,1c-0.1,0.1-0.1,0.1-0.2,0.2c-0.9,0.8-1.8,1.5-2.8,2c0,0-0.1,0-0.1,0.1
			c-0.5,0.3-1,0.6-1.5,0.8c0,0,0,0,0,0c-2.1,1-4.4,1.6-6.8,1.7c-0.1,0-0.1,0-0.2,0c-0.5,0-1,0-1.6,0c-0.1,0-0.1,0-0.2,0
			c-0.6,0-1.1-0.1-1.7-0.2c0,0-0.1,0-0.1,0c-2.3-0.3-4.7-1.1-6.8-2.4C114.4,191,111.5,179.7,116.8,170.9z M49.4,146.2l49,28.9
			c-2.1,13.5,3.9,27.6,16.3,35.1c1.3,0.8,2.6,1.5,4,2V296c-1.5,0.6-2.9,1.3-4.3,2.2c-8,4.7-13.6,12.2-15.9,21.2
			c-1.6,6.3-1.4,12.7,0.4,18.7l-49.5,28L49.4,146.2L49.4,146.2z M247.9,489.9L57.6,380l49.5-28c4.4,4.6,10,7.9,16.3,9.5
			c2.9,0.7,5.8,1.1,8.7,1.1c6.1,0,12.2-1.6,17.6-4.8c1.3-0.8,2.5-1.6,3.7-2.5l68.1,39.3c-0.2,1.3-0.2,2.7-0.2,4
			c0,16.4,11.4,30.1,26.7,33.7L247.9,489.9L247.9,489.9z M255.9,417.1c-10.2,0-18.5-8.3-18.5-18.5c0-2.5,0.5-5,1.4-7.2
			c0,0,0,0,0-0.1c0.2-0.5,0.5-1,0.7-1.5c0,0,0-0.1,0-0.1c2.3-4.2,6.1-7.3,10.7-8.8c0,0,0.1,0,0.1,0c0.5-0.1,1-0.3,1.5-0.4
			c0.1,0,0.3-0.1,0.4-0.1c0.4-0.1,0.8-0.1,1.3-0.2c0.2,0,0.3,0,0.5-0.1c0.6-0.1,1.1-0.1,1.7-0.1c0.6,0,1.2,0,1.7,0.1
			c0.2,0,0.3,0,0.5,0.1c0.4,0.1,0.9,0.1,1.3,0.2c0.1,0,0.3,0.1,0.4,0.1c0.5,0.1,1,0.2,1.5,0.4c0,0,0,0,0.1,0
			c5.2,1.6,9.4,5.5,11.5,10.4c0,0,0,0,0,0c0.9,2.2,1.5,4.6,1.5,7.2C274.4,408.8,266.1,417.1,255.9,417.1z M264.1,489.9v-57.6
			c15.2-3.7,26.5-17.4,26.5-33.7c0-1.3-0.1-2.6-0.2-3.9l67.1-38.8c1.2,1,2.5,1.9,3.8,2.7c5.5,3.3,11.6,5,17.8,5c2.8,0,5.6-0.3,8.4-1
			c6.8-1.7,12.9-5.4,17.5-10.5l49.4,28L264.1,489.9z M462.6,366.1l-50-28.3c3.6-13.5-1.3-28.2-12.8-36.7l22.6-105.1
			c5.4-0.3,10.9-1.8,15.9-4.8c14-8.3,20.1-25,15.5-39.9l8.8-5.2V366.1z"/>
	</g>
</g>
</svg>
