<?xml version="1.0" encoding="utf-8"?>
<!-- Generator: Adobe Illustrator 21.0.2, SVG Export Plug-In . SVG Version: 6.00 Build 0)  -->
<svg version="1.1" id="Layer_1" xmlns="http://www.w3.org/2000/svg" xmlns:xlink="http://www.w3.org/1999/xlink" x="0px" y="0px"
	 viewBox="0 0 512 512" style="enable-background:new 0 0 512 512;" xml:space="preserve">
<style type="text/css">
	.st0{fill:#C0DDE8;}
</style>
<g>
	<g>
		<path class="st0" d="M499.9,456.6H12.1C5.4,456.6,0,462,0,468.7c0,6.7,5.4,12.1,12.1,12.1h487.8c6.7,0,12.1-5.4,12.1-12.1
			C512,462,506.6,456.6,499.9,456.6z"/>
	</g>
</g>
<g>
	<g>
		<path class="st0" d="M468.4,88.3h-84.9c-6.7,0-12.1,5.4-12.1,12.1v82.2h-60.8V43.3c0-6.7-5.4-12.1-12.1-12.1h-84.9
			c-6.7,0-12.1,5.4-12.1,12.1v228.9h-60.8V169.4c0-6.7-5.4-12.1-12.1-12.1H43.6c-6.7,0-12.1,5.4-12.1,12.1v231.6
			c0,6.7,5.4,12.1,12.1,12.1h84.9h84.9h84.9h84.9h84.9c6.7,0,12.1-5.4,12.1-12.1V100.4C480.5,93.7,475.1,88.3,468.4,88.3z
			 M116.5,388.8H55.7V181.5h60.8C116.5,181.5,116.5,388.8,116.5,388.8z M201.4,388.8h-60.8v-92.5h60.8V388.8z M286.4,194.7v194.1
			h-60.8V55.4h60.8V194.7z M371.3,388.8h-60.8v-182h60.8V388.8z M456.3,388.8h-60.8V194.7v-82.2h60.8L456.3,388.8L456.3,388.8z"/>
	</g>
</g>
</svg>
