<?xml version="1.0" encoding="utf-8"?>
<!-- Generator: Adobe Illustrator 21.0.2, SVG Export Plug-In . SVG Version: 6.00 Build 0)  -->
<svg version="1.1" id="Calque_1" xmlns="http://www.w3.org/2000/svg" xmlns:xlink="http://www.w3.org/1999/xlink" x="0px" y="0px"
	 viewBox="0 0 102.4 110.2" style="enable-background:new 0 0 102.4 110.2;" xml:space="preserve">
<style type="text/css">
	.st0{fill:none;stroke:#8EC2D7;stroke-width:0.5;stroke-miterlimit:10;}
	.st1{fill:#65C8D0;stroke:#8EC2D7;stroke-width:0.25;stroke-miterlimit:10;}
	.st2{opacity:0.5;fill:#65C8D0;stroke:#8EC2D7;stroke-width:0.25;stroke-miterlimit:10;enable-background:new    ;}
	.st3{fill:#288391;}
	.st4{font-family:"AvenirNextLTPro-Demi";}
	.st5{font-size:13.2px;}
	.st6{fill:#288398;}
</style>
<circle class="st0" cx="51.8" cy="57.9" r="44.6"/>
<circle class="st1" cx="36.5" cy="100" r="3.5"/>
<circle class="st2" cx="11.2" cy="78.4" r="2.4"/>
<circle class="st1" cx="33.5" cy="17.3" r="4"/>
<circle class="st2" cx="82.4" cy="26.1" r="2.2"/>
<circle class="st1" cx="94.7" cy="46.5" r="1.8"/>
<circle class="st1" cx="85.2" cy="87.8" r="4"/>
<circle class="st1" cx="63.3" cy="15.1" r="1.8"/>
<ellipse transform="matrix(0.7427 -0.6696 0.6696 0.7427 -24.6705 17.4292)" class="st1" cx="10.3" cy="40.8" rx="1.8" ry="1.8"/>
<circle class="st2" cx="59.7" cy="102" r="1.5"/>
<circle class="st2" cx="96.1" cy="61.5" r="2.4"/>
<circle class="st2" cx="17" cy="29.5" r="1.2"/>
<text transform="matrix(1 0 0 1 24.1395 84.0274)" class="st3 st4 st5">MetaCity</text>
<g>
	<g>
		<g>
			<path class="st6" d="M58.9,54.9c0-0.4-0.4-0.8-0.8-0.8c-0.4,0-0.8,0.4-0.8,0.8v1.6c0,0.4,0.4,0.8,0.8,0.8c0.4,0,0.8-0.4,0.8-0.8
				V54.9z"/>
			<path class="st6" d="M58.1,63.6c-0.4,0-0.8,0.4-0.8,0.8v3.2c0,0.4,0.4,0.8,0.8,0.8c0.4,0,0.8-0.4,0.8-0.8v-3.2
				C58.9,64,58.5,63.6,58.1,63.6z"/>
			<path class="st6" d="M62.1,45.4c0-0.4-0.4-0.8-0.8-0.8c-0.4,0-0.8,0.4-0.8,0.8V47c0,0.4,0.4,0.8,0.8,0.8c0.4,0,0.8-0.4,0.8-0.8
				V45.4z"/>
			<path class="st6" d="M58.9,50.1c0-0.4-0.4-0.8-0.8-0.8c-0.4,0-0.8,0.4-0.8,0.8v1.6c0,0.4,0.4,0.8,0.8,0.8c0.4,0,0.8-0.4,0.8-0.8
				V50.1z"/>
			<path class="st6" d="M58.9,59.6c0-0.4-0.4-0.8-0.8-0.8c-0.4,0-0.8,0.4-0.8,0.8v1.6c0,0.4,0.4,0.8,0.8,0.8c0.4,0,0.8-0.4,0.8-0.8
				V59.6L58.9,59.6z"/>
			<path class="st6" d="M62.1,50.1c0-0.4-0.4-0.8-0.8-0.8c-0.4,0-0.8,0.4-0.8,0.8v1.6c0,0.4,0.4,0.8,0.8,0.8c0.4,0,0.8-0.4,0.8-0.8
				V50.1z"/>
			<path class="st6" d="M55.7,45.4c0-0.4-0.4-0.8-0.8-0.8c-0.4,0-0.8,0.4-0.8,0.8V47c0,0.4,0.4,0.8,0.8,0.8c0.4,0,0.8-0.4,0.8-0.8
				V45.4z"/>
			<path class="st6" d="M58.9,45.4c0-0.4-0.4-0.8-0.8-0.8c-0.4,0-0.8,0.4-0.8,0.8V47c0,0.4,0.4,0.8,0.8,0.8c0.4,0,0.8-0.4,0.8-0.8
				V45.4z"/>
			<path class="st6" d="M62.1,37.4v-1.6c0-0.4-0.4-0.8-0.8-0.8c-0.4,0-0.8,0.4-0.8,0.8v1.6c0,0.4,0.4,0.8,0.8,0.8
				C61.7,38.2,62.1,37.9,62.1,37.4z"/>
			<path class="st6" d="M55.7,50.1c0-0.4-0.4-0.8-0.8-0.8c-0.4,0-0.8,0.4-0.8,0.8v1.6c0,0.4,0.4,0.8,0.8,0.8c0.4,0,0.8-0.4,0.8-0.8
				V50.1z"/>
			<path class="st6" d="M65.2,35.9c0-0.4-0.4-0.8-0.8-0.8c-0.4,0-0.8,0.4-0.8,0.8v1.6c0,0.4,0.4,0.8,0.8,0.8c0.4,0,0.8-0.4,0.8-0.8
				V35.9z"/>
			<path class="st6" d="M54.9,54.1c-0.4,0-0.8,0.4-0.8,0.8v1.6c0,0.4,0.4,0.8,0.8,0.8c0.4,0,0.8-0.4,0.8-0.8v-1.6
				C55.7,54.4,55.4,54.1,54.9,54.1z"/>
			<path class="st6" d="M68.4,59.6c0-0.4-0.4-0.8-0.8-0.8s-0.8,0.4-0.8,0.8v1.6c0,0.4,0.4,0.8,0.8,0.8c0.4,0,0.8-0.4,0.8-0.8V59.6
				L68.4,59.6z"/>
			<path class="st6" d="M67.6,63.6c-0.4,0-0.8,0.4-0.8,0.8v3.2c0,0.4,0.4,0.8,0.8,0.8c0.4,0,0.8-0.4,0.8-0.8v-3.2
				C68.4,64,68.1,63.6,67.6,63.6z"/>
			<path class="st6" d="M70.8,54.1c-0.4,0-0.8,0.4-0.8,0.8v1.6c0,0.4,0.4,0.8,0.8,0.8c0.4,0,0.8-0.4,0.8-0.8v-1.6
				C71.6,54.4,71.2,54.1,70.8,54.1z"/>
			<path class="st6" d="M58.1,38.2c0.4,0,0.8-0.4,0.8-0.8v-3.3l7.9-2v13.3c0,0.3,0.2,0.6,0.5,0.7l5.8,2.2v8.2c0,0.4,0.4,0.8,0.8,0.8
				c0.4,0,0.8-0.4,0.8-0.8v-8.7c0-0.3-0.2-0.6-0.5-0.7l-5.8-2.2V29.6c0-0.4-0.4-0.8-0.8-0.8c-0.4,0-0.8,0.4-0.8,0.8v1l-8.9,2.2
				c-0.4,0.1-0.6,0.4-0.6,0.8v4C57.3,37.9,57.7,38.2,58.1,38.2z"/>
			<path class="st6" d="M71.6,50.1c0-0.4-0.4-0.8-0.8-0.8c-0.4,0-0.8,0.4-0.8,0.8v1.6c0,0.4,0.4,0.8,0.8,0.8c0.4,0,0.8-0.4,0.8-0.8
				V50.1z"/>
			<path class="st6" d="M68.4,50.1c0-0.4-0.4-0.8-0.8-0.8s-0.8,0.4-0.8,0.8v1.6c0,0.4,0.4,0.8,0.8,0.8s0.8-0.4,0.8-0.8V50.1z"/>
			<path class="st6" d="M62.1,59.6c0-0.4-0.4-0.8-0.8-0.8c-0.4,0-0.8,0.4-0.8,0.8v1.6c0,0.4,0.4,0.8,0.8,0.8c0.4,0,0.8-0.4,0.8-0.8
				V59.6z"/>
			<path class="st6" d="M68.4,54.9c0-0.4-0.4-0.8-0.8-0.8s-0.8,0.4-0.8,0.8v1.6c0,0.4,0.4,0.8,0.8,0.8s0.8-0.4,0.8-0.8V54.9z"/>
			<path class="st6" d="M61.3,63.6c-0.4,0-0.8,0.4-0.8,0.8v3.2c0,0.4,0.4,0.8,0.8,0.8c0.4,0,0.8-0.4,0.8-0.8v-3.2
				C62.1,64,61.7,63.6,61.3,63.6z"/>
			<path class="st6" d="M62.1,54.9c0-0.4-0.4-0.8-0.8-0.8c-0.4,0-0.8,0.4-0.8,0.8v1.6c0,0.4,0.4,0.8,0.8,0.8c0.4,0,0.8-0.4,0.8-0.8
				V54.9z"/>
			<path class="st6" d="M64.4,68.4c0.4,0,0.8-0.4,0.8-0.8V42.2c0-0.4-0.2-0.7-0.6-0.8l-12.7-3.2c-0.2-0.1-0.5,0-0.7,0.1
				s-0.3,0.4-0.3,0.6v17.4c0,0.4,0.4,0.8,0.8,0.8c0.4,0,0.8-0.4,0.8-0.8V39.9l11.1,2.8v24.8C63.7,68,64,68.4,64.4,68.4z"/>
			<path class="st6" d="M46.2,40.6c0-0.4-0.4-0.8-0.8-0.8s-0.8,0.4-0.8,0.8v1.6c0,0.4,0.4,0.8,0.8,0.8s0.8-0.4,0.8-0.8V40.6z"/>
			<path class="st6" d="M46.2,35.9c0-0.4-0.4-0.8-0.8-0.8s-0.8,0.4-0.8,0.8v1.6c0,0.4,0.4,0.8,0.8,0.8s0.8-0.4,0.8-0.8V35.9z"/>
			<path class="st6" d="M39.9,59.6c0-0.4-0.4-0.8-0.8-0.8c-0.4,0-0.8,0.4-0.8,0.8v1.6c0,0.4,0.4,0.8,0.8,0.8c0.4,0,0.8-0.4,0.8-0.8
				V59.6L39.9,59.6z"/>
			<path class="st6" d="M32.7,52.5c0.4,0,0.8-0.4,0.8-0.8v-4h7.9v19.8c0,0.4,0.4,0.8,0.8,0.8c0.4,0,0.8-0.4,0.8-0.8V46.9
				c0-0.4-0.4-0.8-0.8-0.8h-9.5c-0.4,0-0.8,0.4-0.8,0.8v4.8C31.9,52.1,32.3,52.5,32.7,52.5z"/>
			<path class="st6" d="M41.4,40.6v1.6c0,0.4,0.4,0.8,0.8,0.8c0.4,0,0.8-0.4,0.8-0.8v-1.6c0-0.4-0.4-0.8-0.8-0.8
				C41.8,39.8,41.4,40.2,41.4,40.6z"/>
			<path class="st6" d="M46.2,31.1c0-0.4-0.4-0.8-0.8-0.8s-0.8,0.4-0.8,0.8v1.6c0,0.4,0.4,0.8,0.8,0.8s0.8-0.4,0.8-0.8V31.1z"/>
			<path class="st6" d="M39.1,63.6c-0.4,0-0.8,0.4-0.8,0.8v3.2c0,0.4,0.4,0.8,0.8,0.8c0.4,0,0.8-0.4,0.8-0.8v-3.2
				C39.9,64,39.5,63.6,39.1,63.6z"/>
			<path class="st6" d="M75.5,70h-1.6v-4.9c1.4-0.4,2.4-1.6,2.4-3.1c0-1.7-1.4-3.2-3.2-3.2c-1.7,0-3.2,1.4-3.2,3.2
				c0,1.5,1,2.7,2.4,3.1V70H52.5v-3.3c1.8-0.4,3.2-2,3.2-3.9c0-2.2-1.8-4-4-4s-4,1.8-4,4c0,1.9,1.4,3.5,3.2,3.9V70H33.5v-8
				c1.8-0.4,3.2-2,3.2-3.9c0-2.2-1.8-4-4-4s-4,1.8-4,4c0,1.9,1.4,3.5,3.2,3.9v8h-2.4c-0.4,0-0.8,0.4-0.8,0.8c0,0.4,0.4,0.8,0.8,0.8
				h46c0.4,0,0.8-0.4,0.8-0.8S76,70,75.5,70z M30.3,58.1c0-1.3,1.1-2.4,2.4-2.4s2.4,1.1,2.4,2.4s-1.1,2.4-2.4,2.4
				S30.3,59.4,30.3,58.1z M49.4,62.8c0-1.3,1.1-2.4,2.4-2.4s2.4,1.1,2.4,2.4s-1.1,2.4-2.4,2.4S49.4,64.1,49.4,62.8z M71.6,62
				c0-0.9,0.7-1.6,1.6-1.6c0.9,0,1.6,0.7,1.6,1.6c0,0.9-0.7,1.6-1.6,1.6C72.3,63.6,71.6,62.9,71.6,62z"/>
			<path class="st6" d="M35.1,64.4v3.2c0,0.4,0.4,0.8,0.8,0.8c0.4,0,0.8-0.4,0.8-0.8v-3.2c0-0.4-0.4-0.8-0.8-0.8
				C35.5,63.6,35.1,64,35.1,64.4z"/>
			<path class="st6" d="M39.9,50.1c0-0.4-0.4-0.8-0.8-0.8c-0.4,0-0.8,0.4-0.8,0.8v1.6c0,0.4,0.4,0.8,0.8,0.8c0.4,0,0.8-0.4,0.8-0.8
				V50.1z"/>
			<path class="st6" d="M39.9,54.9c0-0.4-0.4-0.8-0.8-0.8c-0.4,0-0.8,0.4-0.8,0.8v1.6c0,0.4,0.4,0.8,0.8,0.8c0.4,0,0.8-0.4,0.8-0.8
				V54.9z"/>
			<path class="st6" d="M35.1,50.1v1.6c0,0.4,0.4,0.8,0.8,0.8c0.4,0,0.8-0.4,0.8-0.8v-1.6c0-0.4-0.4-0.8-0.8-0.8
				C35.5,49.3,35.1,49.7,35.1,50.1z"/>
			<path class="st6" d="M46.2,54.9c0-0.4-0.4-0.8-0.8-0.8s-0.8,0.4-0.8,0.8v1.6c0,0.4,0.4,0.8,0.8,0.8s0.8-0.4,0.8-0.8V54.9z"/>
			<path class="st6" d="M49.4,45.4c0-0.4-0.4-0.8-0.8-0.8c-0.4,0-0.8,0.4-0.8,0.8V47c0,0.4,0.4,0.8,0.8,0.8c0.4,0,0.8-0.4,0.8-0.8
				V45.4z"/>
			<path class="st6" d="M49.4,40.6c0-0.4-0.4-0.8-0.8-0.8c-0.4,0-0.8,0.4-0.8,0.8v1.6c0,0.4,0.4,0.8,0.8,0.8c0.4,0,0.8-0.4,0.8-0.8
				V40.6z"/>
			<path class="st6" d="M49.4,50.1c0-0.4-0.4-0.8-0.8-0.8c-0.4,0-0.8,0.4-0.8,0.8v1.6c0,0.4,0.4,0.8,0.8,0.8c0.4,0,0.8-0.4,0.8-0.8
				V50.1z"/>
			<path class="st6" d="M48.6,54.1c-0.4,0-0.8,0.4-0.8,0.8v1.6c0,0.4,0.4,0.8,0.8,0.8c0.4,0,0.8-0.4,0.8-0.8v-1.6
				C49.4,54.4,49,54.1,48.6,54.1z"/>
			<path class="st6" d="M49.4,35.9c0-0.4-0.4-0.8-0.8-0.8c-0.4,0-0.8,0.4-0.8,0.8v1.6c0,0.4,0.4,0.8,0.8,0.8c0.4,0,0.8-0.4,0.8-0.8
				V35.9z"/>
			<path class="st6" d="M46.2,59.6c0-0.4-0.4-0.8-0.8-0.8s-0.8,0.4-0.8,0.8v1.6c0,0.4,0.4,0.8,0.8,0.8s0.8-0.4,0.8-0.8V59.6z"/>
			<path class="st6" d="M39.1,44.6c0.4,0,0.8-0.4,0.8-0.8v-5.9l2.7-1.4c0.3-0.1,0.4-0.4,0.4-0.7v-6.6l4-2l4,2v6.6
				c0,0.4,0.4,0.8,0.8,0.8c0.4,0,0.8-0.4,0.8-0.8v-7.1c0-0.3-0.2-0.6-0.4-0.7l-4.3-2.2v-1.1c0-0.4-0.4-0.8-0.8-0.8
				c-0.4,0-0.8,0.4-0.8,0.8v1.1L42,28c-0.3,0.1-0.4,0.4-0.4,0.7v6.6l-2.7,1.4c-0.3,0.1-0.4,0.4-0.4,0.7v6.3
				C38.3,44.2,38.6,44.6,39.1,44.6z"/>
			<path class="st6" d="M46.2,50.1c0-0.4-0.4-0.8-0.8-0.8s-0.8,0.4-0.8,0.8v1.6c0,0.4,0.4,0.8,0.8,0.8s0.8-0.4,0.8-0.8V50.1z"/>
			<path class="st6" d="M45.4,63.6c-0.4,0-0.8,0.4-0.8,0.8v3.2c0,0.4,0.4,0.8,0.8,0.8s0.8-0.4,0.8-0.8v-3.2
				C46.2,64,45.9,63.6,45.4,63.6z"/>
			<path class="st6" d="M49.4,31.1c0-0.4-0.4-0.8-0.8-0.8c-0.4,0-0.8,0.4-0.8,0.8v1.6c0,0.4,0.4,0.8,0.8,0.8c0.4,0,0.8-0.4,0.8-0.8
				V31.1z"/>
			<path class="st6" d="M46.2,45.4c0-0.4-0.4-0.8-0.8-0.8s-0.8,0.4-0.8,0.8V47c0,0.4,0.4,0.8,0.8,0.8s0.8-0.4,0.8-0.8V45.4z"/>
		</g>
	</g>
</g>
</svg>
