<?xml version="1.0" encoding="utf-8"?>
<!-- Generator: Adobe Illustrator 21.0.2, SVG Export Plug-In . SVG Version: 6.00 Build 0)  -->
<svg version="1.1" id="Capa_1" xmlns="http://www.w3.org/2000/svg" xmlns:xlink="http://www.w3.org/1999/xlink" x="0px" y="0px"
	 viewBox="0 0 512 512" style="enable-background:new 0 0 512 512;" xml:space="preserve">
<style type="text/css">
	.st0{fill:#C0DDE8;}
</style>
<g>
	<path class="st0" d="M510.7,238.3C502.1,111.6,400,9.6,273.3,0.9l-9.1-0.6v247.1h247.1L510.7,238.3z M281.3,230.4V18.7
		c21.1,2.3,41.4,7.3,60.5,14.8c0,0.3-0.2,0.6-0.2,0.9c0,4.7,3.8,8.5,8.5,8.5c2.6,0,4.8-1.2,6.4-3c42.1,19.7,77.5,51.4,101.9,90.7
		c-1.5-1.5-3.6-2.4-5.9-2.4c-4.7,0-8.5,3.8-8.5,8.5s3.8,8.5,8.5,8.5s8.5-3.8,8.5-8.5c0-1.1-0.2-2.1-0.6-3.1
		c4.4,7.2,8.3,14.8,11.8,22.5c-1.6,1.6-2.7,3.7-2.7,6.2c0,4.7,3.8,8.5,8.5,8.5c0.2,0,0.3-0.1,0.5-0.1c7.3,18.9,12.2,38.9,14.5,59.8
		L281.3,230.4L281.3,230.4z"/>
	<path class="st0" d="M266.9,264.5l171.3,171.3l6-6.5c39.4-42.7,63.2-98,67.1-155.7l0.6-9.1L266.9,264.5L266.9,264.5z M437.6,411.1
		L308.1,281.5h185.5C488.5,329.1,468.8,374.5,437.6,411.1z"/>
	<circle class="st0" cx="299" cy="34.4" r="8.5"/>
	<circle class="st0" cx="299" cy="85.5" r="8.5"/>
	<circle class="st0" cx="324.5" cy="59.9" r="8.5"/>
	<circle class="st0" cx="375.7" cy="59.9" r="8.5"/>
	<circle class="st0" cx="350.1" cy="85.5" r="8.5"/>
	<circle class="st0" cx="401.2" cy="85.5" r="8.5"/>
	<circle class="st0" cx="426.8" cy="111.1" r="8.5"/>
	<circle class="st0" cx="324.5" cy="111.1" r="8.5"/>
	<circle class="st0" cx="375.7" cy="111.1" r="8.5"/>
	<circle class="st0" cx="426.8" cy="162.2" r="8.5"/>
	<circle class="st0" cx="452.4" cy="187.8" r="8.5"/>
	<circle class="st0" cx="299" cy="136.6" r="8.5"/>
	<circle class="st0" cx="299" cy="187.8" r="8.5"/>
	<circle class="st0" cx="324.5" cy="162.2" r="8.5"/>
	<circle class="st0" cx="375.7" cy="162.2" r="8.5"/>
	<circle class="st0" cx="350.1" cy="136.6" r="8.5"/>
	<circle class="st0" cx="401.2" cy="136.6" r="8.5"/>
	<circle class="st0" cx="350.1" cy="187.8" r="8.5"/>
	<circle class="st0" cx="401.2" cy="187.8" r="8.5"/>
	<circle class="st0" cx="478" cy="213.4" r="8.5"/>
	<circle class="st0" cx="426.8" cy="213.4" r="8.5"/>
	<circle class="st0" cx="324.5" cy="213.4" r="8.5"/>
	<circle class="st0" cx="375.7" cy="213.4" r="8.5"/>
	<path class="st0" d="M247.2,0.3l-9.1,0.6C104.6,10,0,122.1,0,256c0,61.7,22.3,121.3,62.9,167.9l6,6.9l178.3-178.3V0.3z
		 M230.1,245.4L69.9,405.6C35.7,363.3,17,310.5,17,256c0-121.9,92.9-224.4,213.1-237.2V245.4z"/>
	<path class="st0" d="M81,442.8l6.9,6c46.5,40.6,106.2,62.9,167.9,62.9c59,0,116.7-20.7,162.3-58.2l7.3-6L250.7,273L81,442.8z
		 M250.7,297.1l9.4,9.4L116.8,449.8c-3.6-2.6-7.3-5.1-10.8-8L250.7,297.1z M180.7,482.4c-5.9-2-11.8-4.2-17.5-6.6l133.1-133.1
		l12.1,12.1L180.7,482.4z M320.4,366.8l12.1,12.1L219.5,491.7c-6.8-1-13.5-2.4-20.1-4L320.4,366.8z M146.8,468.1
		c-5.3-2.7-10.4-5.6-15.4-8.7l140.8-140.8l12.1,12.1L146.8,468.1z M241.3,494l103.1-103.1l12.1,12.1l-91.3,91.3
		c-3.2,0.1-6.3,0.4-9.5,0.4C250.9,494.6,246.1,494.3,241.3,494z M368.6,415l12.1,12.1L323,484.7c-10.2,3-20.6,5.4-31.2,7.1
		L368.6,415z M362.8,469l29.9-29.9l7.1,7.1C388.1,455,375.7,462.5,362.8,469z"/>
</g>
</svg>
