<?xml version="1.0" encoding="utf-8"?>
<!-- Generator: Adobe Illustrator 21.0.2, SVG Export Plug-In . SVG Version: 6.00 Build 0)  -->
<svg version="1.1" id="Capa_1" xmlns="http://www.w3.org/2000/svg" xmlns:xlink="http://www.w3.org/1999/xlink" x="0px" y="0px"
	 viewBox="0 0 512 512" style="enable-background:new 0 0 512 512;" xml:space="preserve">
<style type="text/css">
	.st0{fill:#C0DDE8;}
</style>
<g>
	<path class="st0" d="M257.7,112.2c-36.1,0-65.5,29.4-65.5,65.5s29.4,65.5,65.5,65.5s65.5-29.4,65.5-65.5S293.8,112.2,257.7,112.2z
		 M257.7,224.4c-25.8,0-46.8-21-46.8-46.8s21-46.8,46.8-46.8s46.8,21,46.8,46.8S283.4,224.4,257.7,224.4z"/>
	<path class="st0" d="M382.8,52.5C348.9,18.7,303.9,0,256,0c-47.9,0-92.9,18.7-126.8,52.5c-62.7,62.7-70.5,180.6-16.9,252L256,512
		l143.4-207.2C453.3,233.1,445.5,115.2,382.8,52.5z M384.3,293.9L256,479.1L127.5,293.6c-48.6-64.8-41.6-171.3,14.9-227.9
		c30.3-30.3,70.7-47,113.6-47s83.2,16.7,113.6,47C426.2,122.3,433.1,228.8,384.3,293.9z"/>
</g>
</svg>
