<?xml version="1.0" encoding="utf-8"?>
<!-- Generator: Adobe Illustrator 21.0.2, SVG Export Plug-In . SVG Version: 6.00 Build 0)  -->
<svg version="1.1" id="Calque_1" xmlns="http://www.w3.org/2000/svg" xmlns:xlink="http://www.w3.org/1999/xlink" x="0px" y="0px"
	 viewBox="0 0 512 512" style="enable-background:new 0 0 512 512;" xml:space="preserve">
<style type="text/css">
	.st0{fill:#C0DDE8;}
</style>
<g>
	<path class="st0" d="M503.8,463H49V8.2C49,3.7,45.4,0,40.9,0s-8.2,3.7-8.2,8.2v69H8.2c-4.5,0-8.2,3.7-8.2,8.2
		c0,4.5,3.7,8.2,8.2,8.2h24.5v60.8H8.2c-4.5,0-8.2,3.7-8.2,8.2s3.7,8.2,8.2,8.2h24.5v60.8H8.2c-4.5,0-8.2,3.7-8.2,8.2
		s3.7,8.2,8.2,8.2h24.5v60.8H8.2c-4.5,0-8.2,3.7-8.2,8.2c0,4.5,3.7,8.2,8.2,8.2h24.5v60.8H8.2c-4.5,0-8.2,3.7-8.2,8.2
		c0,4.5,3.7,8.2,8.2,8.2h24.5v69c0,4.5,3.7,8.2,8.2,8.2h120.7v24.5c0,4.5,3.7,8.2,8.2,8.2c4.5,0,8.2-3.7,8.2-8.2v-24.5h188.8v24.5
		c0,4.5,3.7,8.2,8.2,8.2c4.5,0,8.2-3.7,8.2-8.2v-24.5h120.7c4.5,0,8.2-3.7,8.2-8.2S508.3,463,503.8,463z"/>
	<path class="st0" d="M84.4,446.6c4.5,0,8.2-3.7,8.2-8.2V247.8h69v190.6c0,4.5,3.7,8.2,8.2,8.2c4.5,0,8.2-3.7,8.2-8.2V325h64.5
		v113.5c0,4.5,3.7,8.2,8.2,8.2c4.5,0,8.2-3.7,8.2-8.2V316.8c0-4.5-3.7-8.2-8.2-8.2h-72.6v-69c0-4.5-3.7-8.2-8.2-8.2H84.4
		c-4.5,0-8.2,3.7-8.2,8.2v198.8C76.3,443,79.9,446.6,84.4,446.6z"/>
	<path class="st0" d="M294.1,446.6c4.5,0,8.2-3.7,8.2-8.2v-345h64.5v345c0,4.5,3.7,8.2,8.2,8.2c4.5,0,8.2-3.7,8.2-8.2V170.7h69
		v267.8c0,4.5,3.7,8.2,8.2,8.2c4.5,0,8.2-3.7,8.2-8.2v-276c0-4.5-3.7-8.2-8.2-8.2h-77.2v-69c0-4.5-3.7-8.2-8.2-8.2h-80.8
		c-4.5,0-8.2,3.7-8.2,8.2v353.1C286,443,289.6,446.6,294.1,446.6z"/>
</g>
</svg>
