<?xml version="1.0" encoding="utf-8"?>
<!-- Generator: Adobe Illustrator 21.0.2, SVG Export Plug-In . SVG Version: 6.00 Build 0)  -->
<svg version="1.1" id="Layer_1" xmlns="http://www.w3.org/2000/svg" xmlns:xlink="http://www.w3.org/1999/xlink" x="0px" y="0px"
	 viewBox="0 0 512 512" style="enable-background:new 0 0 512 512;" xml:space="preserve">
<style type="text/css">
	.st0{fill:#C0DDE8;}
</style>
<g>
	<g>
		<path class="st0" d="M9,0C4.3,0,0.6,3.8,0.6,8.4V102c0,4.7,3.8,8.4,8.4,8.4s8.4-3.8,8.4-8.4V8.4C17.4,3.8,13.7,0,9,0z"/>
	</g>
</g>
<g>
	<g>
		<path class="st0" d="M503,495.1h-17.7c-7.6-8.5-32.1-38.8-43.6-86.3c-3.8-15.8-5.8-43.1-8-74.7c-6.4-88.7-14.3-199.1-71.2-199.1
			s-64.9,110.4-71.2,199.1c-1.9,26.6-3.6,50.2-6.4,66.4c-0.3-2.5-0.6-5.1-0.9-7.7c-3.1-27.6-6.5-59-15.7-84.3
			C256.8,277,238.2,261,212.8,261c-6.9,0-13.3,1.2-19.3,3.6c-7.6-68.1-22.8-129.6-65.3-129.6c-56.9,0-64.9,110.4-71.2,199.1
			c-2.3,31.6-4.2,58.9-8,74.7c-7.6,31.5-21.1,55.6-31.5,70.6V135.7c0-4.7-3.8-8.4-8.4-8.4s-8.4,3.8-8.4,8.4v367.8c0,0.1,0,0.2,0,0.2
			c0,0.2,0,0.4,0,0.6c0,0.1,0,0.3,0.1,0.4c0,0.1,0,0.3,0.1,0.4c0,0.1,0.1,0.3,0.1,0.4c0,0.1,0.1,0.3,0.1,0.4c0,0.1,0.1,0.3,0.1,0.4
			c0,0.1,0.1,0.3,0.1,0.4s0.1,0.2,0.2,0.4c0.1,0.1,0.1,0.3,0.2,0.4c0.1,0.1,0.1,0.2,0.2,0.4c0.1,0.1,0.1,0.2,0.2,0.4
			c0.1,0.1,0.2,0.2,0.3,0.4c0.1,0.1,0.1,0.2,0.2,0.3c0.1,0.1,0.3,0.3,0.4,0.4c0.1,0.1,0.1,0.1,0.2,0.2c0,0,0,0,0,0
			c0.2,0.2,0.4,0.4,0.6,0.6c0.1,0.1,0.1,0.1,0.2,0.2c0.1,0.1,0.3,0.2,0.4,0.3c0.1,0.1,0.2,0.1,0.4,0.2c0.1,0.1,0.2,0.1,0.3,0.2
			c0.1,0.1,0.2,0.1,0.4,0.2c0.1,0.1,0.2,0.1,0.4,0.2c0.1,0,0.2,0.1,0.3,0.1c0.1,0.1,0.3,0.1,0.4,0.2c0.1,0,0.2,0.1,0.3,0.1
			c0.2,0,0.3,0.1,0.5,0.1c0.1,0,0.2,0,0.4,0.1c0.2,0,0.4,0.1,0.6,0.1c0.2,0,0.4,0,0.7,0c0,0,0,0,0,0h84.6c0,0,0,0,0,0s0,0,0,0H503
			c4.7,0,8.4-3.8,8.4-8.4C511.4,498.9,507.7,495.1,503,495.1z M90.9,495.1H27.1c11.7-15.6,28.9-43.6,38.2-82.3
			c4.1-17.1,6.1-45.1,8.5-77.4c5.2-73.1,13.2-183.5,54.4-183.5c30.8,0,43,61.5,49.4,123c-8.3,7.9-15.1,19.1-20.4,33.7
			c-9.2,25.3-12.6,56.6-15.7,84.3c-2.1,19.4-4.2,37.7-7.8,47.4C122.6,470.6,97.9,490,90.9,495.1z M117,495.1
			c11.2-10.9,24.7-27.4,32.6-48.9c4.3-11.7,6.4-30.1,8.7-51.5c2.9-26.7,6.3-57,14.8-80.4c2.1-5.7,4.3-10.7,6.8-15
			c1.1,12.5,1.9,24.7,2.7,36c2.3,32.4,4.3,60.3,8.5,77.4c9.3,38.7,26.5,66.7,38.2,82.3L117,495.1L117,495.1z M207.5,408.9
			c-3.8-15.8-5.8-43.1-8-74.7c-1.2-16.8-2.5-34.3-4.1-51.7c5.2-3.1,10.9-4.6,17.4-4.6c18,0,30.7,11.6,39.7,36.5
			c8.5,23.4,11.8,53.7,14.8,80.4c1.9,17.2,3.6,32.5,6.4,43.9c-9.3,23.1-20.8,40-28.3,49.6C234.8,474.9,216.8,447.6,207.5,408.9z
			 M261.3,495.1c6.1-8.2,13.8-19.8,21-34.6c7.7,14.6,17.6,26.2,26.2,34.6H261.3z M334.6,495.1c-7-5.1-31.6-24.6-42.8-54.8
			c-0.1-0.3-0.2-0.6-0.3-0.9c3.1-8.2,5.8-17.1,8.1-26.6c4.1-17.1,6.1-45.1,8.5-77.4c5.2-73.1,13.2-183.5,54.4-183.5
			s49.2,110.4,54.4,183.5c2.3,32.4,4.3,60.3,8.5,77.4c9.3,38.7,26.5,66.7,38.2,82.3L334.6,495.1L334.6,495.1z"/>
	</g>
</g>
</svg>
